<svg xmlns="http://www.w3.org/2000/svg" viewBox="-80 -80 160 160" width="300" height="300"><title>吾輩は数える猫である 透かし（ゴサの顔）</title><circle r="76" fill="#F5F2EA" stroke="#1D2333" stroke-width="6"/><g transform="translate(0,6) scale(1.2)"><path d="M-28 -12 L-25 -46 L-6 -28 Z M28 -12 L25 -46 L6 -28 Z" fill="#1D2333" stroke="#1D2333" stroke-width="6" stroke-linejoin="round"/><path d="M-20 8 Q-33.0 8.0 -46.0 8.0" fill="none" stroke="#1D2333" stroke-width="10" stroke-linecap="round"/><line x1="-46.0" y1="-8.0" x2="-46.0" y2="24.0" stroke="#1D2333" stroke-width="10" stroke-linecap="round"/><path d="M20 8 Q33.0 8.0 46.0 8.0" fill="none" stroke="#1D2333" stroke-width="10" stroke-linecap="round"/><line x1="46.0" y1="-8.0" x2="46.0" y2="24.0" stroke="#1D2333" stroke-width="10" stroke-linecap="round"/><circle r="32" fill="#1D2333"/><circle cx="-11" cy="-4" r="7" fill="#FFFFFF"/><circle cx="-10" cy="-3" r="3.5" fill="#1D2333"/><circle cx="11" cy="-4" r="7" fill="#FFFFFF"/><circle cx="12" cy="-3" r="3.5" fill="#1D2333"/><path d="M-6 12 q3 4 6 0 q3 4 6 0" stroke="#FFFFFF" stroke-width="2.8" fill="none" stroke-linecap="round" stroke-linejoin="round"/></g></svg>
