<svg xmlns="http://www.w3.org/2000/svg" viewBox="-130 -100 260 180" width="260" height="180"><title>ゴサ：条件次第：ひげが長く垂れる＝不確か</title><path d="M-20 8 Q-58.0 21.0 -96.0 26.0" fill="none" stroke="#1D2333" stroke-width="6" stroke-linecap="round"/><line x1="-96.0" y1="14.0" x2="-96.0" y2="38.0" stroke="#1D2333" stroke-width="6" stroke-linecap="round"/><path d="M20 8 Q58.0 21.0 96.0 26.0" fill="none" stroke="#1D2333" stroke-width="6" stroke-linecap="round"/><line x1="96.0" y1="14.0" x2="96.0" y2="38.0" stroke="#1D2333" stroke-width="6" stroke-linecap="round"/><path d="M-16 30 V52 M16 30 V52" stroke="#1D2333" stroke-width="7" stroke-linecap="round"/><path d="M-28 -12 L-36 -34 L-6 -28 Z M28 -12 L36 -34 L6 -28 Z" fill="#1D2333"/><circle r="32" fill="#1D2333"/><circle cx="-11" cy="-4" r="7" fill="#FFFFFF"/><circle cx="-12" cy="-3" r="3.5" fill="#1D2333"/><circle cx="11" cy="-4" r="7" fill="#FFFFFF"/><circle cx="10" cy="-3" r="3.5" fill="#1D2333"/><path d="M-8 14 q2 -3 4 0 q2 3 4 0 q2 -3 4 0 q2 3 4 0" stroke="#FFFFFF" stroke-width="2.8" fill="none" stroke-linecap="round" stroke-linejoin="round"/></svg>
