<svg xmlns="http://www.w3.org/2000/svg" viewBox="-130 -100 260 180" width="260" height="180"><title>ゴサ：考え中：ひげが片方ずつ上下（暗い背景用）</title><defs><filter id="halo" x="-10%" y="-10%" width="120%" height="120%"><feMorphology in="SourceAlpha" operator="dilate" radius="4" result="d"/><feFlood flood-color="#FFFFFF"/><feComposite in2="d" operator="in" result="w"/><feMerge><feMergeNode in="w"/><feMergeNode in="SourceGraphic"/></feMerge></filter></defs><g filter="url(#halo)"><g transform="rotate(-8)"><path d="M-20 8 Q-45.0 2.0 -70.0 -4.0" fill="none" stroke="#1D2333" stroke-width="6" stroke-linecap="round"/><line x1="-70.0" y1="-16.0" x2="-70.0" y2="8.0" stroke="#1D2333" stroke-width="6" stroke-linecap="round"/><path d="M20 8 Q45.0 13.0 70.0 18.0" fill="none" stroke="#1D2333" stroke-width="6" stroke-linecap="round"/><line x1="70.0" y1="6.0" x2="70.0" y2="30.0" stroke="#1D2333" stroke-width="6" stroke-linecap="round"/><path d="M-16 30 V52 M16 30 V52" stroke="#1D2333" stroke-width="7" stroke-linecap="round"/><path d="M-28 -12 L-25 -46 L-6 -28 Z M28 -12 L25 -46 L6 -28 Z" fill="#1D2333"/><circle r="32" fill="#1D2333"/><path d="M-18 -4 h13 M5 -4 h13" stroke="#FFFFFF" stroke-width="4.5" stroke-linecap="round"/><path d="M-5 13 h10" stroke="#FFFFFF" stroke-width="2.8" fill="none" stroke-linecap="round" stroke-linejoin="round"/></g><g transform="translate(48,-64)"><path d="M-9 -12 q0 -12 10 -12 q10 0 10 10 q0 7 -10 11 v6" stroke="#1D2333" stroke-width="6" fill="none" stroke-linecap="round"/><circle cx="1" cy="15" r="4" fill="#1D2333"/></g></g></svg>
